<svg id="Layer_6" data-name="Layer 6" xmlns="http://www.w3.org/2000/svg" viewBox="0 0 287.32 287.32"><defs><style>.cls-1{fill:#4897e5;}.cls-2{fill:#a4dd68;}.cls-3{fill:#c3ea92;}.cls-4{fill:#6ecc3e;}</style></defs><title>404</title><circle class="cls-1" cx="143.66" cy="143.66" r="143.66"/><polygon class="cls-2" points="111.95 216.36 111.95 247.79 143.37 263.5 174.8 247.79 174.8 216.36 143.37 200.65 111.95 216.36"/><polygon class="cls-2" points="206.22 43.53 174.8 27.82 49.1 90.67 49.1 122.09 80.53 137.81 111.95 122.09 111.95 153.52 111.95 184.94 143.37 200.65 143.37 200.65 174.8 184.94 174.8 153.52 206.22 137.81 206.22 43.53 206.22 43.53"/><polygon class="cls-3" points="111.95 122.09 143.37 106.38 174.8 122.09 143.37 137.81 111.95 122.09"/><polygon class="cls-4" points="111.95 122.09 111.95 153.52 143.37 169.23 143.37 137.81 111.95 122.09"/><polygon class="cls-3" points="111.95 216.36 143.37 200.65 174.8 216.36 143.37 232.08 111.95 216.36"/><polygon class="cls-4" points="111.95 216.36 111.95 247.79 143.37 263.5 143.37 232.08 111.95 216.36"/><polygon class="cls-2" points="143.37 263.5 143.37 232.08 174.8 216.36 174.8 247.79 143.37 263.5"/><polygon class="cls-3" points="111.95 122.09 143.37 106.38 174.8 122.09 143.37 137.81 111.95 122.09"/><polygon class="cls-4" points="111.95 122.09 111.95 184.94 143.37 200.65 143.37 137.81 111.95 122.09"/><polygon class="cls-4" points="143.37 74.96 143.37 106.38 174.8 122.09 174.8 90.67 143.37 74.96"/><polygon class="cls-3" points="174.8 27.82 49.1 90.67 80.53 106.38 206.22 43.53 174.8 27.82"/><polygon class="cls-4" points="49.1 90.67 49.1 122.09 80.53 137.81 80.53 106.38 49.1 90.67"/><polygon class="cls-2" points="80.53 106.38 80.53 137.81 174.8 90.67 174.8 122.09 143.37 137.81 143.37 200.65 174.8 184.94 174.8 153.52 206.22 137.81 206.22 43.53 80.53 106.38"/></svg>