<svg id="Layer_5_copy_3" data-name="Layer 5 copy 3" xmlns="http://www.w3.org/2000/svg" viewBox="0 0 332.22 420.29"><defs><style>.cls-1{fill:#4897e5;}.cls-2{fill:#6ecc3e;}.cls-3{fill:#c3ea92;}.cls-4{fill:#a4dd68;}</style></defs><title>cubes_v2</title><circle class="cls-1" cx="168.49" cy="247.46" r="121.43"/><circle class="cls-1" cx="280.19" cy="192.47" r="52.03"/><circle class="cls-1" cx="24.71" cy="348.45" r="24.71"/><circle class="cls-1" cx="55.03" cy="184.61" r="24.71"/><circle class="cls-1" cx="71.84" cy="115.05" r="16.82"/><circle class="cls-1" cx="306.73" cy="308.34" r="13.25"/><polygon class="cls-2" points="143.45 30.76 147.51 57.54 190.47 61.76 197.93 31 193.87 4.22 150.9 0 143.45 30.76"/><polygon class="cls-2" points="136.66 104.71 135.78 126.99 174.72 144.38 195.25 112.62 196.13 90.34 157.19 72.96 136.66 104.71"/><polygon class="cls-2" points="198.67 200.32 198.67 168.9 167.25 153.19 135.83 168.9 135.83 200.32 167.25 216.04 198.67 200.32"/><polygon class="cls-3" points="261.52 373.15 198.67 341.73 135.83 373.15 198.67 404.58 261.52 373.15"/><polygon class="cls-2" points="261.52 278.88 261.52 247.46 167.25 200.32 72.98 247.46 72.98 341.73 104.4 357.44 72.98 373.15 72.98 420.29 261.52 420.29 261.52 373.15 230.1 357.44 230.1 294.6 261.52 278.88"/><polygon class="cls-3" points="72.98 247.46 167.25 200.32 261.52 247.46 167.25 294.6 72.98 247.46"/><polygon class="cls-3" points="72.98 373.15 104.4 388.87 104.4 357.44 72.98 373.15"/><polygon class="cls-3" points="104.4 326.02 104.4 357.44 135.83 373.15 135.83 341.73 104.4 326.02"/><polygon class="cls-4" points="104.4 357.44 135.83 341.73 104.4 326.02 104.4 357.44"/><polygon class="cls-4" points="135.83 247.46 167.25 231.75 198.67 247.46 167.25 263.17 135.83 247.46"/><polygon class="cls-2" points="167.25 231.75 167.25 263.17 198.67 247.46 167.25 231.75"/><polygon class="cls-2" points="148.26 57.54 144.2 30.76 151.65 0 155.71 26.78 148.26 57.54"/><polygon class="cls-3" points="155.71 26.78 151.65 0 194.61 4.22 198.67 31 155.71 26.78"/><polygon class="cls-4" points="198.67 31 191.22 61.76 148.26 57.54 155.71 26.78 198.67 31"/><polygon class="cls-4" points="175.65 122.1 196.18 90.34 195.3 112.62 174.76 144.38 175.65 122.1"/><polygon class="cls-3" points="136.71 104.71 157.24 72.96 196.18 90.34 175.65 122.1 136.71 104.71"/><polygon class="cls-2" points="175.65 122.1 174.76 144.38 135.83 126.99 136.71 104.71 175.65 122.1"/><polygon class="cls-3" points="135.83 168.9 167.25 153.19 198.67 168.9 167.25 184.61 135.83 168.9"/><polygon class="cls-2" points="135.83 168.9 135.83 200.32 167.25 216.04 167.25 184.61 135.83 168.9"/><polygon class="cls-4" points="167.25 216.04 167.25 184.61 198.67 168.9 198.67 200.32 167.25 216.04"/><polygon class="cls-4" points="261.52 420.29 261.52 373.15 198.67 404.58 198.67 373.15 230.1 357.44 230.1 294.6 261.52 278.88 261.52 247.46 167.25 294.6 167.25 420.29 261.52 420.29"/></svg>