<svg id="Layer_5_copy_3" data-name="Layer 5 copy 3" xmlns="http://www.w3.org/2000/svg" viewBox="0 0 380.61 475.5"><defs><style>.cls-1{fill:#4897e5;}.cls-2{fill:#6ecc3e;}.cls-3{fill:#c3ea92;}.cls-4{fill:#a4dd68;}</style></defs><title>cubic</title><circle class="cls-1" cx="193.03" cy="283.5" r="139.11"/><circle class="cls-1" cx="321" cy="220.5" r="59.61"/><circle class="cls-1" cx="28.3" cy="399.2" r="28.3"/><circle class="cls-1" cx="63.04" cy="211.5" r="28.3"/><circle class="cls-1" cx="82.3" cy="131.8" r="19.26"/><circle class="cls-1" cx="351.41" cy="353.25" r="15.18"/><polygon class="cls-2" points="164.34 35.24 168.99 65.92 218.21 70.76 226.75 35.52 222.1 4.84 172.88 0 164.34 35.24"/><polygon class="cls-2" points="156.56 119.96 155.55 145.49 200.16 165.4 223.68 129.02 224.69 103.5 180.08 83.58 156.56 119.96"/><polygon class="cls-2" points="227.61 229.5 227.61 193.5 191.61 175.5 155.61 193.5 155.61 229.5 191.61 247.5 227.61 229.5"/><polygon class="cls-2" points="83.61 481.5 83.61 283.5 191.61 229.5 299.61 283.5 299.61 319.5 263.61 337.5 263.61 409.5 299.61 427.5 299.61 481.5 83.61 481.5"/><polygon class="cls-3" points="299.61 427.5 227.61 391.5 155.61 427.5 227.61 463.5 299.61 427.5"/><polygon class="cls-2" points="191.61 481.5 191.61 337.5 83.61 283.5 83.61 481.5 191.61 481.5"/><polygon class="cls-3" points="83.61 283.5 191.61 229.5 299.61 283.5 191.61 337.5 83.61 283.5"/><polygon class="cls-3" points="83.61 391.5 83.61 427.5 119.61 445.5 119.61 409.5 83.61 391.5"/><polygon class="cls-4" points="83.61 427.5 119.61 409.5 83.61 391.5 83.61 427.5"/><polygon class="cls-3" points="119.61 373.5 119.61 409.5 155.61 427.5 155.61 391.5 119.61 373.5"/><polygon class="cls-4" points="119.61 409.5 155.61 391.5 119.61 373.5 119.61 409.5"/><polygon class="cls-4" points="155.61 283.5 191.61 265.5 227.61 283.5 191.61 301.5 155.61 283.5"/><polygon class="cls-2" points="191.61 265.5 191.61 301.5 227.61 283.5 191.61 265.5"/><polygon class="cls-2" points="169.85 65.92 165.2 35.24 173.73 0 178.39 30.68 169.85 65.92"/><polygon class="cls-3" points="178.39 30.68 173.73 0 222.95 4.84 227.61 35.52 178.39 30.68"/><polygon class="cls-4" points="227.61 35.52 219.07 70.76 169.85 65.92 178.39 30.68 227.61 35.52"/><polygon class="cls-4" points="201.23 139.88 224.75 103.5 223.74 129.02 200.22 165.4 201.23 139.88"/><polygon class="cls-3" points="156.62 119.96 180.14 83.58 224.75 103.5 201.23 139.88 156.62 119.96"/><polygon class="cls-2" points="201.23 139.88 200.22 165.4 155.61 145.49 156.62 119.96 201.23 139.88"/><polygon class="cls-3" points="155.61 193.5 191.61 175.5 227.61 193.5 191.61 211.5 155.61 193.5"/><polygon class="cls-2" points="155.61 193.5 155.61 229.5 191.61 247.5 191.61 211.5 155.61 193.5"/><polygon class="cls-4" points="191.61 247.5 191.61 211.5 227.61 193.5 227.61 229.5 191.61 247.5"/><polygon class="cls-4" points="299.61 481.5 299.61 427.5 227.61 463.5 227.61 427.5 263.61 409.5 263.61 337.5 299.61 319.5 299.61 283.5 191.61 337.5 191.61 481.5 299.61 481.5"/></svg>